<?xml version="1.0" standalone="no"?><!DOCTYPE svg PUBLIC "-//W3C//DTD SVG 1.1//EN" "http://www.w3.org/Graphics/SVG/1.1/DTD/svg11.dtd"><svg t="1574603084616" class="icon" viewBox="0 0 1024 1024" version="1.1" xmlns="http://www.w3.org/2000/svg" p-id="4716" xmlns:xlink="http://www.w3.org/1999/xlink" width="200" height="200"><defs><style type="text/css"></style></defs><path d="M834 288h-69.6l1.8-1.8-204.28-176.59A50.66 50.66 0 0 0 514 68.23l-0.24-0.2-0.17 0.16c-0.56 0-1.08-0.16-1.63-0.16l-1-1-1.48 1.28a50.67 50.67 0 0 0-47.39 41L256.72 286.93l1 1H190a67.74 67.74 0 0 0-67.8 67.67v473.7A67.74 67.74 0 0 0 190 897h644a67.73 67.73 0 0 0 67.8-67.67v-473.7A67.74 67.74 0 0 0 834 288zM481.69 159.32a50.06 50.06 0 0 0 60.72-0.09L691.39 288H333z m-207 297.82a16.93 16.93 0 0 1 17-16.92h237.3a16.93 16.93 0 0 1 17 16.92v16.92a16.93 16.93 0 0 1-17 16.92H291.65a16.93 16.93 0 0 1-17-16.92zM749.3 727.82a16.93 16.93 0 0 1-16.95 16.92h-440.7a16.93 16.93 0 0 1-17-16.92V710.9a16.93 16.93 0 0 1 17-16.92h440.7a16.93 16.93 0 0 1 16.95 16.92z m0-118.42a16.93 16.93 0 0 1-16.95 16.92h-440.7a16.93 16.93 0 0 1-17-16.92v-16.92a16.93 16.93 0 0 1 17-16.92h440.7a16.93 16.93 0 0 1 16.95 16.92z" p-id="4717"></path></svg>