<?xml version="1.0" standalone="no"?><!DOCTYPE svg PUBLIC "-//W3C//DTD SVG 1.1//EN" "http://www.w3.org/Graphics/SVG/1.1/DTD/svg11.dtd"><svg t="1574602947939" class="icon" viewBox="0 0 1024 1024" version="1.1" xmlns="http://www.w3.org/2000/svg" p-id="3946" xmlns:xlink="http://www.w3.org/1999/xlink" width="200" height="200"><defs><style type="text/css"></style></defs><path d="M1024 165.7v767.2c0 17.2-13.9 31.3-31.2 31.3H722.6c-8.1 0-15.9-3.2-21.6-8.7-0.2-0.1-29.6-55.2-69.6-55.2-32.7 0-63.7 18.1-95.5 53.5l-0.6 0.6c-0.1 0.2-0.2 0.3-0.4 0.5l-1.5 1.5-0.2 0.2c-0.5 0.4-1 0.8-1.4 1.2-0.2 0.2-0.3 0.2-0.5 0.4-0.5 0.3-1 0.7-1.4 1-0.1 0.1-0.2 0.2-0.3 0.2-0.6 0.4-1.2 0.8-1.8 1.1-0.2 0.1-0.3 0.2-0.5 0.2l-1.6 0.8c-0.2 0.1-0.3 0.2-0.5 0.2-0.6 0.3-1.3 0.6-2 0.8-0.1 0-0.1 0.1-0.2 0.1s-0.2 0.1-0.2 0.1c-0.9 0.3-1.7 0.5-2.5 0.8h-0.1c-0.9 0.2-1.7 0.4-2.5 0.5-0.2 0-0.3 0.1-0.5 0.1-0.8 0.2-1.7 0.2-2.5 0.3-0.2 0.1-0.3 0.1-0.5 0.1-0.9 0-1.7 0.1-2.5 0.1-0.9 0-1.7 0-2.5-0.1-0.2-0.1-0.3-0.1-0.5-0.1-0.9-0.1-1.7-0.2-2.5-0.3-0.2 0-0.3-0.1-0.5-0.1-0.9-0.2-1.7-0.3-2.5-0.5h-0.1c-0.9-0.2-1.7-0.5-2.5-0.8-0.1 0-0.2-0.1-0.2-0.1-0.1 0-0.1-0.1-0.2-0.1-0.6-0.2-1.3-0.5-2-0.8-0.2-0.1-0.3-0.2-0.5-0.2-0.6-0.2-1-0.5-1.5-0.8l-0.6-0.3c-0.6-0.4-1.3-0.7-1.8-1.1-0.2-0.2-0.2-0.2-0.4-0.3-0.5-0.3-0.9-0.6-1.3-0.9-0.2-0.2-0.4-0.3-0.6-0.5-0.4-0.4-0.9-0.7-1.3-1.1-0.2-0.1-0.2-0.2-0.4-0.3-0.5-0.5-1-0.9-1.4-1.4-0.2-0.2-0.3-0.4-0.5-0.5-0.2-0.2-0.4-0.3-0.6-0.5-31.9-35.4-62.2-53.5-94.9-53.5-40 0-69.5 55.2-69.8 55.4-5.8 5.4-13.5 8.6-21.4 8.6h-270C14 964.3 0 950.3 0 933V165.7v-10.2c0-17 13.8-30.7 30.7-30.7h174l85.4-1.5c17.2-13.1 54.4-63.6 102.4-63.6 27.5 0 52.8 5.5 78.4 19.3l5.7 4.9c7.1 12.2 20.2 20.5 35.3 20.5s28.2-8.3 35.3-20.5l5.7-5.1c25.5-13.5 51.1-18.9 78.5-18.9 48.1 0 85.2 50.6 102.4 63.6h44.3l204.8 1.3h10.2c17 0 30.7 13.8 30.7 30.7 0.2 3.6 0.2 10.2 0.2 10.2z m-553-3.1c-26.8-25.5-50.9-40.6-78.4-40.6-40 0-69.5 55.2-69.8 55.4-5.8 5.4-13.5 8.6-21.4 8.6H62.3v715.5h227.9c17.2-13.1 54.4-63.6 102.4-63.6 28 0 52 5.7 78.4 20V162.6zM961.8 186H722.6c-8.1 0-15.9-3.2-21.6-8.7-0.2-0.1-29.6-55.2-69.6-55.2-27.1 0-51.8 14.7-78.4 39.4v695.9c26.1-13.8 50.9-19.3 78.5-19.3 48.1 0 85.2 50.6 102.4 63.6h227.9V186zM593.9 513.9c0-11.3 9.2-20.5 20.5-20.5h286.7c11.3 0 20.5 9.2 20.5 20.5s-9.2 20.5-20.5 20.5H614.4c-11.3-0.1-20.5-9.2-20.5-20.5z m219.4-102.4H614.4c-11.3 0-20.5-9.2-20.5-20.5s9.2-20.5 20.5-20.5h198.9c11.3 0 20.5 9.2 20.5 20.5s-9.1 20.5-20.5 20.5z" p-id="3947"></path></svg>