<?xml version="1.0" standalone="no"?><!DOCTYPE svg PUBLIC "-//W3C//DTD SVG 1.1//EN" "http://www.w3.org/Graphics/SVG/1.1/DTD/svg11.dtd"><svg t="1575984135453" class="icon" viewBox="0 0 1024 1024" version="1.1" xmlns="http://www.w3.org/2000/svg" p-id="2649" xmlns:xlink="http://www.w3.org/1999/xlink" width="200" height="200"><defs><style type="text/css"></style></defs><path d="M829.44 107.52H194.56c-56.32 0-102.4 46.08-102.4 102.4v430.08c0 56.32 46.08 102.4 102.4 102.4h81.92v174.08l256-174.08h296.96c56.32 0 102.4-46.08 102.4-102.4v-430.08c0-56.32-46.08-102.4-102.4-102.4z m-514.048 204.8h208.896c17.408 0 30.72 13.312 30.72 30.72s-13.312 30.72-30.72 30.72H315.392c-16.384 0-30.72-13.312-30.72-30.72 0-16.384 13.312-30.72 30.72-30.72z m372.736 204.8H315.392c-16.384 0-30.72-13.312-30.72-30.72 0-16.384 13.312-30.72 30.72-30.72h372.736c17.408 0 30.72 13.312 30.72 30.72s-13.312 30.72-30.72 30.72z" p-id="2650"></path></svg>