<?xml version="1.0" standalone="no"?><!DOCTYPE svg PUBLIC "-//W3C//DTD SVG 1.1//EN" "http://www.w3.org/Graphics/SVG/1.1/DTD/svg11.dtd"><svg t="1574602861703" class="icon" viewBox="0 0 1024 1024" version="1.1" xmlns="http://www.w3.org/2000/svg" p-id="3218" xmlns:xlink="http://www.w3.org/1999/xlink" width="200" height="200"><defs><style type="text/css"></style></defs><path d="M920 12.8h-700.8c-48 0-86.4 38.4-86.4 86.4v41.6h-30.4c-48 0-86.4 38.4-86.4 86.4V928c0 48 38.4 86.4 86.4 86.4h700.8c48 0 86.4-38.4 86.4-86.4v-41.6h30.4c48 0 86.4-38.4 86.4-86.4V97.6c0-46.4-38.4-84.8-86.4-84.8z m-91.2 913.6c0 14.4-11.2 25.6-25.6 25.6h-700.8c-14.4 0-25.6-11.2-25.6-25.6V225.6c0-14.4 11.2-25.6 25.6-25.6h700.8c14.4 0 25.6 11.2 25.6 25.6v700.8z m116.8-128c0 14.4-11.2 25.6-25.6 25.6h-30.4V225.6c0-48-38.4-86.4-86.4-86.4h-609.6v-41.6c0-14.4 11.2-25.6 25.6-25.6h700.8c14.4 0 25.6 11.2 25.6 25.6v700.8z" p-id="3219"></path><path d="M291.2 360h-89.6c-16 0-30.4 14.4-30.4 30.4s14.4 30.4 30.4 30.4h89.6c16 0 30.4-14.4 30.4-30.4s-14.4-30.4-30.4-30.4zM707.2 360h-276.8c-16 0-30.4 14.4-30.4 30.4s14.4 30.4 30.4 30.4h276.8c16 0 30.4-14.4 30.4-30.4s-14.4-30.4-30.4-30.4zM291.2 545.6h-89.6c-16 0-30.4 14.4-30.4 30.4s14.4 30.4 30.4 30.4h89.6c16 0 30.4-14.4 30.4-30.4s-14.4-30.4-30.4-30.4zM707.2 545.6h-276.8c-16 0-30.4 14.4-30.4 30.4s14.4 30.4 30.4 30.4h276.8c16 0 30.4-14.4 30.4-30.4s-14.4-30.4-30.4-30.4zM291.2 731.2h-89.6c-16 0-30.4 14.4-30.4 30.4s14.4 30.4 30.4 30.4h89.6c16 0 30.4-14.4 30.4-30.4s-14.4-30.4-30.4-30.4zM707.2 731.2h-276.8c-16 0-30.4 14.4-30.4 30.4s14.4 30.4 30.4 30.4h276.8c16 0 30.4-14.4 30.4-30.4s-14.4-30.4-30.4-30.4z" p-id="3220"></path></svg>