<?xml version="1.0" standalone="no"?><!DOCTYPE svg PUBLIC "-//W3C//DTD SVG 1.1//EN" "http://www.w3.org/Graphics/SVG/1.1/DTD/svg11.dtd"><svg t="1575984254942" class="icon" viewBox="0 0 1024 1024" version="1.1" xmlns="http://www.w3.org/2000/svg" p-id="4927" xmlns:xlink="http://www.w3.org/1999/xlink" width="200" height="200"><defs><style type="text/css"></style></defs><path d="M968.369152 754.005333h-74.410667a146.090667 146.090667 0 0 0-289.792 0h-55.978666a54.954667 54.954667 0 0 1-54.954667-54.954666V204.8a54.954667 54.954667 0 0 1 54.954667-54.954667h420.181333A54.954667 54.954667 0 0 1 1024.006485 204.8v494.592a54.954667 54.954667 0 0 1-54.954666 54.954667z m-566.613333 0h-37.546667a146.090667 146.090667 0 0 0-289.792 0H36.529152A36.522667 36.522667 0 0 1 0.006485 716.8v-200.362667C0.006485 443.733333 124.934485 260.778667 182.619819 260.778667h219.136a36.522667 36.522667 0 0 1 36.522666 36.522666V716.8a36.522667 36.522667 0 0 1-36.522666 36.522667zM328.710485 351.914667s-57.685333-2.730667-126.634666 0c-29.354667 0-110.933333 108.885333-110.933334 164.522666v18.432h238.933334z m-109.568 329.045333a91.477333 91.477333 0 1 1-91.477333 91.477333 91.477333 91.477333 0 0 1 91.477333-91.477333z m534.528 0a95.914667 95.914667 0 1 1-95.914666 95.914667 95.914667 95.914667 0 0 1 95.914666-95.914667z m0 0" p-id="4928"></path></svg>