<?xml version="1.0" standalone="no"?><!DOCTYPE svg PUBLIC "-//W3C//DTD SVG 1.1//EN" "http://www.w3.org/Graphics/SVG/1.1/DTD/svg11.dtd"><svg t="1573994803119" class="icon" viewBox="0 0 1024 1024" version="1.1" xmlns="http://www.w3.org/2000/svg" p-id="3746" xmlns:xlink="http://www.w3.org/1999/xlink" width="200" height="200"><defs><style type="text/css"></style></defs><path d="M146.102949 0h594.134932c54.756622 5.629185 102.348826 52.709645 103.372314 108.489755 1.023488 100.301849 0 201.115442 0.511744 301.417291-19.446277-10.234883-39.404298-19.958021-59.874063-27.634182-0.511744-88.01999 0-176.551724 0-264.571715 1.023488-18.422789-6.652674-38.38081-22.516742-48.615692-15.864068-11.258371-35.822089-8.69965-54.244877-8.69965h-552.683658c-16.375812-0.511744-33.263368 6.652674-42.986507 20.469765-12.793603 15.864068-10.746627 38.38081-10.746627 57.315343 0.511744 243.590205 0 486.668666 0 730.25887 37.869065-28.145927 74.714643-58.338831 113.095453-85.973013 31.728136 25.587206 64.47976 50.150925 96.207896 75.738131 7.164418 6.14093 16.375812 10.234883 24.563718 15.352323 9.211394 14.84058 16.375812 30.704648 25.587206 45.545228-10.746627 8.187906-21.493253 15.864068-32.23988 24.051974-37.869065-28.145927-76.249875-55.78011-114.11894-84.437781-58.338831 40.93953-115.142429 83.414293-172.969516 124.865567 0-290.158921-0.511744-580.317841 0-870.988506-1.535232-57.827086 47.592204-108.489755 104.907547-112.583708z" p-id="3747"></path><path d="M263.292354 181.669165c110.024988-2.558721 221.073463-0.511744 331.098451-1.023488 16.887556 0 30.704648 17.911044 27.634183 34.286857-2.046977 13.305347-13.305347 26.098951-27.634183 25.587206-109.513243 0-219.026487 0.511744-328.539731-0.511744-30.192904-3.070465-31.728136-52.197901-2.55872-58.338831z m-9.723139 205.209396c7.676162-6.652674 18.422789-5.629185 28.145927-5.629186 44.521739 0.511744 88.531734-0.511744 133.053474 0.511744 19.958021 0.511744 33.263368 24.563718 24.563718 41.963019-4.605697 11.770115-16.887556 18.934533-29.68116 17.911044-48.103948 0-95.696152 0.511744-143.8001-0.511744-25.075462-3.070465-32.751624-39.916042-12.281859-54.244877z m267.130435 46.568715c70.62069-33.775112 153.011494-40.93953 228.237881-20.469765 74.714643 19.958021 142.264868 68.061969 184.73963 133.053474 36.845577 54.244878 53.733133 121.283358 49.639181 186.786606-5.117441 85.973013-49.63918 167.34033-117.189405 220.561719-54.244878 43.498251-123.330335 67.550225-192.927537 70.62069h-20.469765c-116.165917-3.070465-229.261369-72.155922-279.924038-178.086957-40.427786-80.855572-41.451274-179.622189-2.55872-260.989505 30.192904-66.526737 85.461269-120.25987 150.452773-151.476262m120.771614 29.169416c-56.803598 4.093953-111.56022 27.634183-154.034982 64.47976-52.197901 46.056972-85.973013 114.118941-84.949525 184.227886-1.023488 66.014993 27.634183 132.029985 75.738131 177.063468 42.986507 42.474763 101.837081 68.061969 162.222888 73.17941 76.761619 7.164418 156.593703-20.981509 210.838581-76.249875 45.545227-45.545227 73.17941-109.001499 72.667666-173.993003 0.511744-76.761619-39.404298-151.988006-100.813593-197.533234-51.686157-38.38081-117.701149-56.291854-181.669166-51.174412z" p-id="3748"></path><path d="M632.25987 529.143428c13.817091-10.746627 37.357321-10.234883 47.592204 5.117442 6.14093 11.770115 5.629185 25.587206 6.652674 38.892553 0.511744 36.845577-0.511744 73.691154 0.511744 110.024988 33.775112 0 68.061969-0.511744 101.837081 0 12.281859 0.511744 27.634183 3.582209 32.751624 16.375812 5.629185 13.817091 2.046977 34.286857-14.328835 38.892554-20.981509 5.117441-42.986507 4.093953-63.968016 4.605697-35.822089-1.023488-72.155922 1.535232-107.978011-2.046977-10.234883 0.511744-11.770115-12.281859-12.281859-19.958021-0.511744-49.127436 0-98.766617 0-147.894053-0.511744-14.84058-0.511744-31.728136 9.211394-44.009995z m-375.108446 109.513244c-22.004998-11.258371-19.446277-48.103948 4.605697-55.78011 22.516742-3.070465 45.033483-0.511744 68.061969-1.023489-7.164418 19.446277-14.328836 39.404298-18.422788 59.874063-17.911044-0.511744-36.845577 3.582209-54.244878-3.070464z" p-id="3749"></path></svg>