<?xml version="1.0" standalone="no"?><!DOCTYPE svg PUBLIC "-//W3C//DTD SVG 1.1//EN" "http://www.w3.org/Graphics/SVG/1.1/DTD/svg11.dtd"><svg t="1573891142398" class="icon" viewBox="0 0 1024 1024" version="1.1" xmlns="http://www.w3.org/2000/svg" p-id="8521" xmlns:xlink="http://www.w3.org/1999/xlink" width="200" height="200"><defs><style type="text/css"></style></defs><path d="M153.6 25.6h716.8a128 128 0 0 1 128 128v716.8a128 128 0 0 1-128 128H153.6a128 128 0 0 1-128-128V153.6a128 128 0 0 1 128-128z m612.557 609.613l45.056-253.184a18.406 18.406 0 0 0-6.912-17.562 17.997 17.997 0 0 0-18.483-2.56l-125.543 54.195-103.065-90.47a51.456 51.456 0 0 0 19.968-40.294 54.682 54.682 0 0 0-54.426-54.938c-30.054 0-54.426 24.576-54.426 54.938-0.768 15.206 5.223 29.977 16.333 40.294l-103.065 90.47-125.543-53.836a17.997 17.997 0 0 0-18.585 2.176 18.406 18.406 0 0 0-6.81 17.612l44.8 253.159h490.7z m-5.888 33.1H281.344l17.536 99.073a18.176 18.176 0 0 0 17.766 15.027h408.192a18.176 18.176 0 0 0 17.792-15.027l17.639-99.072z" p-id="8522"></path></svg>