<?xml version="1.0" standalone="no"?><!DOCTYPE svg PUBLIC "-//W3C//DTD SVG 1.1//EN" "http://www.w3.org/Graphics/SVG/1.1/DTD/svg11.dtd"><svg t="1573891223624" class="icon" viewBox="0 0 1024 1024" version="1.1" xmlns="http://www.w3.org/2000/svg" p-id="10707" xmlns:xlink="http://www.w3.org/1999/xlink" width="200" height="200"><defs><style type="text/css"></style></defs><path d="M679.413 45.034c-156.304 0-283.008 126.702-283.008 283.008 0 17.717 1.641 35.036 4.754 51.847L56.796 724.253V894.06c0 31.273 25.329 56.602 56.602 56.602H170v-56.603h113.203V780.855h113.203V667.652h84.146c27.923-117.059 133.172-204.086 258.79-204.086 57.558 0 110.839 18.273 154.37 49.33 42.814-49.59 68.71-114.196 68.71-184.855 0-156.306-126.702-283.007-283.009-283.007z m84.79 283.12c-46.895 0-84.902-38.008-84.902-84.903 0-46.894 38.007-84.903 84.903-84.903 46.894 0 84.902 38.01 84.902 84.903 0 46.896-38.008 84.903-84.902 84.903z" p-id="10708"></path><path d="M952.278 684.148h-42.187c-3.974-8.568-9.615-26.392-16.83-39.094l29.796-28.954c9.409-9.408 9.417-24.208 0.018-33.598l-34.01-33.805c-9.392-9.394-24.62-9.292-34.028 0.111l-28.133 29.836c-12.682-7.205-30.505-12.802-39.074-16.777v-42.18c0-13.299-14.088-24.06-27.362-24.06H712.37c-13.282 0-27.37 10.761-27.37 24.06v42.188c-8.569 3.975-26.382 9.615-39.081 16.822l-28.965-29.796c-9.407-9.409-24.216-9.409-33.6-0.018l-33.805 34.02c-9.384 9.383-9.297 24.61 0.112 34.029l29.846 28.13c-7.216 12.7-12.803 30.516-16.78 39.086H520.55c-13.308 0-24.07 14.087-24.07 27.359v48.097c0 13.276 10.763 27.372 24.07 27.372h42.186c3.977 8.57 9.624 26.384 16.821 39.083l-29.793 28.973c-9.41 9.407-9.41 24.197-0.018 33.589l34.01 33.815c9.381 9.38 24.618 9.285 34.029-0.122l28.13-29.846c12.7 7.21 30.513 12.804 39.083 16.778v42.186c0 13.3 14.087 24.064 27.36 24.064h48.1c13.272 0 27.37-10.765 27.37-24.07v-42.187c8.569-3.977 26.381-9.62 39.09-16.828l28.966 29.794c9.407 9.409 24.198 9.409 33.59 0.016l33.814-34.009c9.383-9.392 9.286-24.621-0.121-34.027l-29.847-28.132c7.207-12.702 12.804-30.506 16.778-39.076h42.19c13.297 0 24.061-14.09 24.061-27.361v-48.1c0-13.282-10.762-27.368-24.07-27.368zM736.415 843.763c-59.77 0-108.221-48.45-108.221-108.21 0-59.772 48.451-108.22 108.22-108.22 59.78 0 108.22 48.448 108.22 108.22 0 59.76-48.44 108.21-108.22 108.21z" p-id="10709"></path></svg>