<?xml version="1.0" standalone="no"?><!DOCTYPE svg PUBLIC "-//W3C//DTD SVG 1.1//EN" "http://www.w3.org/Graphics/SVG/1.1/DTD/svg11.dtd"><svg t="1573994396797" class="icon" viewBox="0 0 1027 1024" version="1.1" xmlns="http://www.w3.org/2000/svg" p-id="2318" xmlns:xlink="http://www.w3.org/1999/xlink" width="200.5859375" height="200"><defs><style type="text/css"></style></defs><path d="M365.412559 1024 73.082512 1024c-40.36201 0-73.082512-32.720502-73.082512-73.082512l0-876.990142c0-40.36201 32.720502-73.082512 73.082512-73.082512l730.825119 0c40.36201 0 73.082512 32.720502 73.082512 73.082512l0 146.165024c0 20.181005-16.360251 36.541256-36.541256 36.541256l0 0c-20.181005 0-36.541256-16.360251-36.541256-36.541256l0-109.623768c0-20.181005-16.360251-36.541256-36.541256-36.541256L109.623768 73.927346c-20.181005 0-36.541256 16.360251-36.541256 36.541256l0 803.907631c0 20.181005 16.360251 36.541256 36.541256 36.541256l255.788792 0c20.181005 0 36.541256 16.360251 36.541256 36.541256l0 0C401.953815 1007.641211 385.593564 1024 365.412559 1024z" p-id="2319"></path><path d="M694.283863 220.092369 182.70628 220.092369c-20.181005 0-36.541256-16.360251-36.541256-36.541256l0 0c0-20.181005 16.360251-36.541256 36.541256-36.541256l511.577583 0c20.181005 0 36.541256 16.360251 36.541256 36.541256l0 0C730.825119 203.73358 714.464868 220.092369 694.283863 220.092369z" p-id="2320"></path><path d="M401.953815 366.257393 182.70628 366.257393c-20.181005 0-36.541256-16.360251-36.541256-36.541256l0 0c0-20.181005 16.360251-36.541256 36.541256-36.541256l219.247536 0c20.181005 0 36.541256 16.360251 36.541256 36.541256l0 0C438.495071 349.898604 422.13482 366.257393 401.953815 366.257393z" p-id="2321"></path><path d="M292.330047 512.422417l-109.623768 0c-20.181005 0-36.541256-16.360251-36.541256-36.541256l0 0c0-20.181005 16.360251-36.541256 36.541256-36.541256l109.623768 0c20.181005 0 36.541256 16.360251 36.541256 36.541256l0 0C328.871303 496.063627 312.511052 512.422417 292.330047 512.422417z" p-id="2322"></path><path d="M1012.452963 961.621153l-123.784235-123.784235c38.479404-49.501709 61.405388-111.694926 61.405388-179.248015 0-161.4495-130.880547-292.330047-292.330047-292.330047s-292.330047 130.880547-292.330047 292.330047 130.880547 292.330047 292.330047 292.330047c67.553089 0 129.746307-22.924522 179.248015-61.403926l123.782774 123.782774c7.135776 7.135776 16.487415 10.702203 25.839053 10.702203s18.703276-3.566427 25.839053-10.702203C1026.723054 999.026244 1026.723054 975.891244 1012.452963 961.621153zM502.711213 813.618835c-41.410013-41.410013-64.216142-96.468916-64.216142-155.031394s22.806129-113.621381 64.216142-155.031394 96.468916-64.216142 155.031394-64.216142 113.621381 22.806129 155.031394 64.216142c41.410013 41.410013 64.216142 96.468916 64.216142 155.031394s-22.806129 113.621381-64.216142 155.031394c-41.410013 41.410013-96.468916 64.216142-155.031394 64.216142S544.121226 855.030309 502.711213 813.618835z" p-id="2323"></path></svg>