<?xml version="1.0" standalone="no"?><!DOCTYPE svg PUBLIC "-//W3C//DTD SVG 1.1//EN" "http://www.w3.org/Graphics/SVG/1.1/DTD/svg11.dtd"><svg t="1573891015477" class="icon" viewBox="0 0 1024 1024" version="1.1" xmlns="http://www.w3.org/2000/svg" p-id="7684" xmlns:xlink="http://www.w3.org/1999/xlink" width="200" height="200"><defs><style type="text/css"></style></defs><path d="M857.975 87.228H721.37v59.075c0 28.75-10.978 52.159-39.74 52.159H342.319c-28.75 0-39.74-23.385-39.74-52.159V87.228H165.974a78.423 78.423 0 0 0-78.238 78.237v780.298A78.423 78.423 0 0 0 165.974 1024h692a78.423 78.423 0 0 0 78.238-78.237V165.416a78.423 78.423 0 0 0-78.237-78.188z m-46.272 679.074c0 14.902-16.23 27.023-36.088 27.023H248.359c-19.87 0-36.076-12.158-36.076-27.023v-4.508c0-14.903 16.23-27.023 36.076-27.023h527.256c19.87 0 36.088 12.158 36.088 27.023z m0-197.456c0 14.902-16.23 27.023-36.088 27.023H248.359c-19.87 0-36.076-12.158-36.076-27.023v-4.508c0-14.902 16.23-27.023 36.076-27.023h527.256c19.87 0 36.088 12.158 36.088 27.023z m0-197.456c0 14.903-16.23 27.023-36.088 27.023H248.359c-19.87 0-36.076-12.157-36.076-27.023v-4.507c0-14.866 16.23-27.023 36.076-27.023h527.256c19.87 0 36.088 12.157 36.088 27.023z" p-id="7685"></path><path d="M353.581 0h316.823q8.619 0 8.619 8.619V144.7q0 8.619-8.619 8.619H353.581q-8.618 0-8.618-8.619V8.62Q344.963 0 353.58 0z" p-id="7686"></path></svg>