<?xml version="1.0" standalone="no"?><!DOCTYPE svg PUBLIC "-//W3C//DTD SVG 1.1//EN" "http://www.w3.org/Graphics/SVG/1.1/DTD/svg11.dtd"><svg t="1575983985948" class="icon" viewBox="0 0 1024 1024" version="1.1" xmlns="http://www.w3.org/2000/svg" p-id="1895" xmlns:xlink="http://www.w3.org/1999/xlink" width="200" height="200"><defs><style type="text/css"></style></defs><path d="M64.032 0.032h327.072a64 64 0 0 1 64.032 64v440.896a64.032 64.032 0 0 1-64.032 64.032H64.032a64 64 0 0 1-64-64.032V64.032a64 64 0 0 1 64-64z m568.864 455.072h327.072a64 64 0 0 1 63.968 64V960a64 64 0 0 1-63.968 64.032H632.896A64 64 0 0 1 568.864 960V519.136a64 64 0 0 1 64.032-64.032zM64.032 682.656h327.072a64 64 0 0 1 64.032 64.032v213.248a64 64 0 0 1-64.032 64H64.032a64 64 0 0 1-64-64v-213.248a64 64 0 0 1 64-64.032zM632.896 0.032h327.072a64 64 0 0 1 63.968 64v213.28a64 64 0 0 1-63.968 64H632.896a64 64 0 0 1-64.032-64V64.032a64 64 0 0 1 64.032-64z" p-id="1896"></path></svg>